<?xml version="1.0" encoding="iso-8859-1"?>
<!-- Uploaded to: SVG Repo, www.svgrepo.com, Generator: SVG Repo Mixer Tools -->
<svg fill="#000000" height="800px" width="800px" version="1.1" id="Layer_1" xmlns="http://www.w3.org/2000/svg" xmlns:xlink="http://www.w3.org/1999/xlink" 
	 viewBox="0 0 512 512" xml:space="preserve">
<g>
	<g>
		<path d="M454.001,107.548h-7.182c-1.625-16.628-15.675-29.66-32.715-29.66c-5.276,0-10.367,1.246-14.938,3.575
			c-7.485-6.25-17.051-9.814-26.952-9.814c-12.469,0-23.68,5.471-31.383,14.126c-4.723-1.787-9.76-2.73-14.917-2.73
			c-1.592,0-3.185,0.097-4.766,0.271c-7.561-6.424-17.213-10.031-27.244-10.031c-9.403,0-18.329,3.087-25.587,8.677
			c-10.789-7.821-23.724-12.046-37.286-12.046c-10.8,0-21.211,2.676-30.538,7.789c-7.063-5.016-15.588-7.789-24.341-7.789
			c-14.711,0-27.905,7.496-35.466,19.445c-6.619-2.264-13.606-3.434-20.636-3.434c-19.434,0-37.839,9.035-49.842,24.038
			c-3.315-0.78-6.781-0.997-10.183-0.596c-4.528-3.705-10.248-5.796-16.227-5.796c-5.915,0-11.548,2.026-16.054,5.655
			C12.284,110.202,0,123.093,0,138.8c0,14.072,9.858,25.879,23.03,28.891c-11.678,11.862-18.264,27.808-18.264,44.642
			c0,14.115,4.626,27.667,13.151,38.76c-1.896,6.099-2.86,12.436-2.86,18.914c0,31.22,22.597,57.695,53.048,62.819
			c2.275,1.885,4.615,3.694,6.998,5.416v15.675c0,15.198,7.832,29.4,20.366,37.622v41.554c0,4.961,4.03,8.991,8.991,8.991h62.278
			c4.961,0,8.991-4.03,8.991-8.991V391.54c8.265-5.427,14.483-13.443,17.766-22.641c10.41,6.25,22.359,9.609,34.708,9.609
			c10.042,0,19.748-2.177,28.642-6.348c3.499,7.832,9.219,14.613,16.466,19.38v41.554c0,4.961,4.03,8.991,8.991,8.991h62.158
			c4.972,0,9.002-4.03,9.002-8.991V391.54c12.523-8.222,20.355-22.424,20.355-37.622v-3.488
			c28.068-6.922,48.379-32.238,48.379-61.855c0-1.679-0.076-3.38-0.206-5.081c8.222-7.865,12.999-18.838,12.999-30.375
			c0-10.118-3.727-19.954-10.334-27.559c-0.033-0.661-0.087-1.332-0.13-1.993h29.476c31.978,0,57.999-26.02,57.999-58.009
			C512,133.568,485.98,107.548,454.001,107.548z M341.579,124.079c5.005-0.693,8.699-4.994,8.634-10.042
			c0-0.141-0.011-0.282-0.022-0.466c0.054-12.1,9.912-21.936,22.023-21.936c7.03,0,13.487,3.25,17.69,8.915
			c1.733,2.329,4.387,3.792,7.29,4.008c2.903,0.206,5.741-0.845,7.8-2.903c2.427-2.437,5.666-3.77,9.11-3.77
			c7.106,0,12.88,5.774,12.88,12.88c0,1.322-0.574,3.824-0.585,3.846c-1.636,5.232-6.532,9.034-12.295,9.034
			c-2.806,0-5.481-0.899-7.756-2.622c-2.318-1.755-5.286-2.416-8.125-1.809c-2.849,0.617-5.286,2.427-6.673,4.983
			c-1.332,2.427-3.087,4.561-5.221,6.348c-3.878,3.239-4.723,8.861-1.972,13.097c4.593,7.085,7.009,15.296,7.009,23.745
			c0,6.965-1.592,13.638-4.756,19.824c-2.156,4.246-1.029,9.424,2.708,12.382c3.12,2.47,4.907,6.142,4.907,10.096
			c0,7.106-5.774,12.88-12.88,12.88c-5.005,0-9.446-2.817-11.624-7.366c-1.679-3.542-5.232-5.687-9.013-5.687
			c-0.802,0-9.49,1.603-13.075,1.603c-24.114,0-43.743-19.618-43.743-43.732C303.892,145.668,320.097,127.047,341.579,124.079z
			 M126.581,424.092h-13.118v-25.728c2.167,0.325,4.355,0.498,6.586,0.498c2.21,0,4.387-0.173,6.532-0.487V424.092z
			 M132.041,378.053c-0.13,0.054-8.07,2.817-11.992,2.817c-4.084,0-8.016-0.888-11.689-2.654
			c-9.273-4.463-15.263-13.996-15.263-24.298v-4.745c6.142,3.087,12.523,5.698,19.098,7.778c10.768,3.401,21.925,5.384,33.257,5.904
			c-1.105,3.152-2.784,6.11-5.005,8.677C138.085,374.261,135.258,376.45,132.041,378.053z M157.747,424.092h-13.129v-25.717
			c2.145,0.314,4.333,0.487,6.543,0.487c2.221,0,4.42-0.173,6.586-0.498V424.092z M162.838,378.215
			c-2.069,0.997-4.236,1.701-6.456,2.145c3.228-4.441,5.601-9.414,7.03-14.678c0.747,0.043,1.506,0.065,2.253,0.065
			c3.488,0,6.922-0.433,10.259-1.267C173.389,370.383,168.796,375.345,162.838,378.215z M304.314,424.092h-13.021v-25.728
			c2.177,0.325,4.376,0.498,6.597,0.498c2.177,0,4.311-0.173,6.424-0.466V424.092z M308.42,378.724
			c-3.315,1.419-6.846,2.145-10.529,2.145c-4.084,0-8.016-0.888-11.678-2.654c-6.424-3.087-11.309-8.645-13.682-15.209h21.774
			c10.139,0,20.16-1.192,29.92-3.477c-0.942,4.409-2.957,8.547-5.947,12.014C316.187,373.969,309.146,378.237,308.42,378.724z
			 M335.469,424.092H322.47v-25.695c2.102,0.292,4.246,0.466,6.413,0.466c2.232,0,4.42-0.173,6.586-0.498V424.092z M340.571,378.215
			c-2.037,0.986-4.16,1.679-6.337,2.112c5.557-7.648,8.59-16.888,8.59-26.41v-0.238c1.766-0.715,3.51-1.452,5.232-2.232
			c2.578,0.423,5.178,0.682,7.767,0.791C355.824,352.238,356.94,370.199,340.571,378.215z M405.633,271.133
			c-3.163,2.232-4.766,6.088-4.095,9.901c0.444,2.524,0.672,5.07,0.672,7.54c0,22.175-16.574,40.85-38.576,43.439
			c-4.875,0.585-9.825,0.336-14.7-0.747c-2.199-0.498-4.506-0.227-6.532,0.758c-3.813,1.852-7.8,3.499-11.851,4.907
			c-11.624,4.041-23.821,6.088-36.246,6.088h-26.757c-2.535,0-4.983,0.964-6.836,2.697c-1.387,1.3-2.892,2.535-4.474,3.683
			c-8.179,5.969-17.874,9.121-28.035,9.121c-12.089,0-23.637-4.561-32.509-12.826c-1.852-1.722-4.279-2.676-6.814-2.676h-10.237
			c-1.397,0-2.784,0.292-4.051,0.856c-4.907,2.167-10.399,2.502-15.643,0.834c-0.737-0.227-4.853-1.69-6.261-1.69
			c0,0-23.724-1.722-34.47-5.124c-10.118-3.196-19.705-7.843-28.534-13.823c-3.716-2.513-7.323-5.297-10.714-8.255
			c-1.517-1.322-3.401-2.156-5.406-2.394c-21.958-2.6-38.521-21.265-38.521-43.418c0-5.915,1.159-11.656,3.445-17.04
			c1.549-3.64,0.802-7.854-1.907-10.735c-7.626-8.146-11.829-18.762-11.829-29.898c0-13.053,5.774-25.327,15.838-33.668
			c2.253-1.874,3.575-4.647,3.607-7.572c0.043-3.477,0.877-6.792,2.481-9.869c1.972-3.802,1.311-8.439-1.657-11.526
			c-2.957-3.087-7.561-3.954-11.439-2.145c-1.257,0.585-2.589,0.888-3.965,0.888c-5.308,0-9.63-4.322-9.63-9.641
			c0-5.319,4.322-9.641,9.63-9.641c0.325,0,6.229,1.311,9.825-3.521c1.018-1.376,2.665-2.08,4.355-2.08
			c1.852,0,3.596,0.921,4.658,2.47c2.578,3.77,7.388,5.297,11.678,3.726c2.86-1.051,5.882-0.693,8.406,0.888
			c2.275,1.441,5.037,1.896,7.659,1.267c2.622-0.628,4.875-2.286,6.25-4.604c7.865-13.194,22.272-21.395,37.601-21.395
			c7.355,0,14.353,1.766,20.799,5.243c2.632,1.419,5.752,1.592,8.515,0.466c2.773-1.127,4.886-3.434,5.774-6.283
			c2.882-9.229,11.331-15.437,21.016-15.437c6.164,0,11.884,2.492,16.108,7.02c3.434,3.683,9.089,4.236,13.162,1.278
			c7.496-5.427,16.347-8.298,25.609-8.298c11.58,0,22.5,4.496,30.743,12.642c2.026,2.004,4.799,3.055,7.637,2.871
			c2.838-0.173,5.471-1.549,7.225-3.77c4.214-5.319,10.508-8.374,17.267-8.374c6.294,0,12.295,2.708,16.477,7.42
			c2.492,2.806,6.337,3.986,9.966,3.055c1.82-0.477,3.694-0.704,5.568-0.704s3.705,0.238,5.481,0.693
			c-0.173,0.715-0.336,1.43-0.466,2.156c-27.299,7.431-47.025,32.574-47.025,61.498c0,35.131,28.588,63.718,63.729,63.718
			c2.795,0,5.59-0.184,8.363-0.542c6.164,7.453,15.469,11.992,25.349,11.992c9.37,0,17.831-3.943,23.821-10.248
			c0.477,1.787,1.441,3.434,2.817,4.723c4.528,4.225,7.02,9.934,7.02,16.087C415.003,260.268,411.494,267.006,405.633,271.133z
			 M454.001,203.58h-40.352c-0.964-5.102-3.109-9.879-6.283-13.974c1.462-3.889,3.239-12.382,3.261-12.577
			c0.477-3.163,0.737-6.38,0.737-9.641c0-8.536-1.701-16.899-4.972-24.666c2.502,0.607,5.081,0.91,7.713,0.91
			c12.003,0,22.521-6.467,28.263-16.097h11.634c20.961,0,38.012,17.051,38.012,38.023
			C492.014,186.519,474.963,203.58,454.001,203.58z"/>
	</g>
</g>
<g>
	<g>
		<circle cx="431.892" cy="160.997" r="11.432"/>
	</g>
</g>
<g>
	<g>
		<path d="M106.787,168.153c-7.648-2.041-15.875,0.162-21.471,5.758c-5.601,5.602-7.804,13.83-5.751,21.478
			c1.079,4.016,4.711,6.664,8.681,6.664c0.771,0,1.557-0.1,2.338-0.31c4.798-1.288,7.643-6.221,6.354-11.019
			c-0.398-1.479,0.013-3.008,1.097-4.093c1.085-1.085,2.62-1.5,4.108-1.098c4.796,1.281,9.727-1.569,11.01-6.369
			C114.437,174.365,111.586,169.435,106.787,168.153z"/>
	</g>
</g>
<g>
	<g>
		<path d="M223.789,216.732c-6.427-6.427-15.878-8.963-24.668-6.616c-4.799,1.283-7.65,6.212-6.369,11.01
			c1.283,4.8,6.215,7.65,11.012,6.369c2.604-0.695,5.403,0.053,7.306,1.956c1.901,1.901,2.65,4.693,1.953,7.287
			c-1.289,4.797,1.556,9.73,6.353,11.019c0.782,0.21,1.566,0.31,2.339,0.31c3.969,0,7.602-2.648,8.68-6.664
			C232.754,232.62,230.222,223.165,223.789,216.732z"/>
	</g>
</g>
<g>
	<g>
		<path d="M235.012,122.684c-8.786-2.347-18.239,0.189-24.667,6.616c-6.435,6.434-8.966,15.888-6.607,24.673
			c1.078,4.017,4.711,6.664,8.68,6.664c0.772,0,1.558-0.1,2.339-0.31c4.797-1.289,7.643-6.222,6.353-11.019
			c-0.697-2.594,0.052-5.386,1.954-7.288c1.902-1.902,4.701-2.653,7.305-1.955c4.797,1.281,9.729-1.57,11.011-6.37
			C242.663,128.897,239.812,123.967,235.012,122.684z"/>
	</g>
</g>
<g>
	<g>
		<path d="M137.056,274.292c-6.43-6.427-15.88-8.962-24.669-6.613c-4.799,1.283-7.649,6.213-6.366,11.012s6.211,7.653,11.013,6.366
			c2.602-0.695,5.401,0.054,7.303,1.955c1.901,1.902,2.651,4.695,1.954,7.289c-1.289,4.797,1.557,9.73,6.353,11.019
			c0.782,0.21,1.566,0.31,2.339,0.31c3.969,0,7.602-2.648,8.68-6.664C146.022,290.182,143.491,280.728,137.056,274.292z"/>
	</g>
</g>
<g>
	<g>
		<path d="M324.125,270.139c-7.649-2.041-15.878,0.162-21.471,5.758c-5.601,5.601-7.804,13.83-5.751,21.477
			c1.079,4.017,4.711,6.663,8.681,6.663c0.771,0,1.557-0.1,2.338-0.31c4.797-1.288,7.643-6.221,6.354-11.019
			c-0.396-1.478,0.014-3.008,1.098-4.093c1.084-1.086,2.62-1.499,4.107-1.099c4.797,1.283,9.73-1.569,11.012-6.369
			C331.775,276.352,328.925,271.42,324.125,270.139z"/>
	</g>
</g>
</svg>